<?xml version="1.0" encoding="utf-8"?>
<!-- Generator: Adobe Illustrator 22.1.0, SVG Export Plug-In . SVG Version: 6.00 Build 0)  -->
<svg version="1.1" id="Capa_1" xmlns="http://www.w3.org/2000/svg" xmlns:xlink="http://www.w3.org/1999/xlink" x="0px" y="0px"
	 viewBox="0 0 512 512" style="enable-background:new 0 0 512 512;" xml:space="preserve">
<style type="text/css">
	.st0{fill:#FE2566;}
</style>
<g>
	<path class="st0" d="M134.4,20c35.7,0,64.9,12,87.3,32.8c14.4,13.3,25.9,30.1,34.3,49.6c8.4-19.5,19.9-36.3,34.1-49.6
		C312.5,32,341.9,20,377.6,20c37.2,0,70.7,15.1,95,39.4c24.4,24.4,39.4,58,39.4,95c0,63.6-69.7,138.2-119.1,190.9
		c-8.9,9.5-17.1,18.2-24.6,26.6L265.7,487.7c-4.7,5.3-12.8,5.8-18,1.1c-0.6-0.4-0.9-0.7-1.3-1.1L143.7,371.9
		c-6.7-7.5-15.5-16.8-25-27C69.3,292.2,0,218.2,0,154.4c0-37,15.1-70.6,39.4-95C63.8,35.1,97.4,20,134.4,20L134.4,20z M204.4,71.6
		c-17.7-16.4-41-25.9-70-25.9c-29.9,0-57.1,12.2-76.8,31.9s-31.9,46.9-31.9,76.8c0,53.8,65.3,123.4,111.8,173
		c9.1,9.7,17.7,18.8,25.3,27.5L256,460l93.2-105c6.9-7.7,15.7-17.1,25.2-27.2c46.3-49.6,112-119.6,112-173.4
		c0-29.9-12.2-57.1-31.7-76.8c-19.7-19.7-46.9-31.9-76.9-31.9c-29,0-52.3,9.5-70,25.9c-19.3,17.9-32.5,44.3-38.8,76
		c-0.9,5.1-4.7,9.3-10.2,10.4c-6.9,1.5-13.7-2.9-15.1-10C237,116.3,223.9,89.6,204.4,71.6L204.4,71.6z"/>
</g>
<ellipse class="st0" cx="133.7" cy="161" rx="115.1" ry="122.3"/>
<ellipse class="st0" cx="380.7" cy="161" rx="115.1" ry="122.3"/>
<polygon class="st0" points="254.2,465.7 174.1,307.8 94,149.9 261.4,153.8 428.9,157.7 341.5,311.7 "/>
<polygon class="st0" points="246.6,449.5 159.8,361 72.9,272.6 125.1,242 177.3,211.5 212,330.5 "/>
<polygon class="st0" points="246.6,472.7 287.9,338.8 329.2,205 381.8,234.8 434.4,264.7 340.5,368.7 "/>
</svg>
