<?xml version="1.0" encoding="utf-8"?>
<!-- Generator: Adobe Illustrator 22.1.0, SVG Export Plug-In . SVG Version: 6.00 Build 0)  -->
<svg version="1.1" id="Laag_1" xmlns="http://www.w3.org/2000/svg" xmlns:xlink="http://www.w3.org/1999/xlink" x="0px" y="0px"
	 viewBox="0 0 841.9 595.3" style="enable-background:new 0 0 841.9 595.3;" xml:space="preserve">
<style type="text/css">
	.st0{fill:#51B375;}
	.st1{fill:#FFFFFF;}
	.st2{fill:none;stroke:#000000;stroke-miterlimit:10;}
</style>
<circle class="st0" cx="432.9" cy="299.2" r="268.4"/>
<path class="st1" d="M385.9,239.1c0,0-6.6-107.1,8.2-107.9c14.8-0.8,37,0.4,37,0.4s16.4-2.5,16.4,18.1s0,53.4,0,53.4l54.2-1.6
	c0,0,14,2.5,13.1,18.1s0,25.5,0,25.5s0,9-16.5,12.3h-92.9l-2.5,109.3c0,0,23.8,60.8,74,40.3c0,0,37.1-11.5,37.8-46
	c0.8-34.5,51.7-18.9,51.7-18.9s23,6.6,0,55.9S499.3,462,499.3,462s-46.8,11.5-69,0c0,0-76.4-9-82.2-81.7
	c-5.8-72.8-4.1-85.1-4.1-85.1l-51.8-2.5c0,0-14-3.3-15.6-18.1c-1.6-14.8,0-18.9,0-18.9s2.3-16,16.4-15.6
	C385.9,242.4,385.9,239.1,385.9,239.1z"/>
<path class="st2" d="M327.6,252.3"/>
</svg>
