<svg id="Laag_1" data-name="Laag 1" xmlns="http://www.w3.org/2000/svg" viewBox="0 0 126.6 16.43"><defs><style>.cls-1{fill:#fff;stroke:#000;stroke-miterlimit:10;stroke-width:0.25px;}.cls-2{fill:#fe2566;}</style></defs><title>progressie</title><path class="cls-1" d="M11.47,4.52H121.58a8,8,0,0,1,8,7,9.13,9.13,0,0,1-.31,3.46,8,8,0,0,1-7.74,5.7H11.47a8,8,0,0,1-7.87-10,11.85,11.85,0,0,1,.46-1.34A8,8,0,0,1,11.47,4.52Z" transform="translate(-3.19 -4.4)"/><path class="cls-2" d="M10.74,4.52h53c2,0,3.66,3,3.87,7A18.8,18.8,0,0,1,67.5,15c-.46,3.42-2,5.7-3.73,5.7h-53c-2.54,0-8-3.4-7.33-8.47.06-.43-.3,3.11.06-.43C4,6.47,9.2,4.52,10.74,4.52Z" transform="translate(-3.19 -4.4)"/></svg>