<?xml version="1.0" encoding="utf-8"?>
<!-- Generator: Adobe Illustrator 22.1.0, SVG Export Plug-In . SVG Version: 6.00 Build 0)  -->
<svg version="1.1" id="Laag_1" xmlns="http://www.w3.org/2000/svg" xmlns:xlink="http://www.w3.org/1999/xlink" x="0px" y="0px"
	 viewBox="0 0 44.7 7" style="enable-background:new 0 0 44.7 7;" xml:space="preserve">
<style type="text/css">
	.st0{fill:#FFFFFF;stroke:#000000;stroke-width:0.1;stroke-miterlimit:10;}
	.st1{fill:#FE2566;}
</style>
<title>progressie</title>
<path class="st0" d="M3.1,0.4h38.5c1.3,0,2.6,1.1,2.9,2.4c0,0.5,0,0.8,0,1.3c-0.3,1.3-1.6,2.1-2.6,2.1H3.1c-1.6,0-2.9-1.3-2.9-2.6
	c0-0.3,0-0.5,0-0.8s0-0.3,0.3-0.5C1,1.2,1.8,0.4,3.1,0.4z"/>
<path class="st1" d="M4.8,0.4h33.1c1.4,0,2.3,1.1,2.3,2.4c0,0.5,0,0.8,0,1.3c-0.5,1.3-1.4,2.1-2.3,2.1H4.8C2.2,6.5,0.5,5.7,0.2,3.3
	c0-0.3,0,1.1,0-0.3C0.6,1.2,1.9,0,4.8,0.4z"/>
</svg>
