<?xml version="1.0" encoding="utf-8"?>
<!-- Generator: Adobe Illustrator 22.1.0, SVG Export Plug-In . SVG Version: 6.00 Build 0)  -->
<svg version="1.1" id="Laag_1" xmlns="http://www.w3.org/2000/svg" xmlns:xlink="http://www.w3.org/1999/xlink" x="0px" y="0px"
	 viewBox="0 0 44.7 7" style="enable-background:new 0 0 44.7 7;" xml:space="preserve">
<style type="text/css">
	.st0{fill:#FFFFFF;stroke:#000000;stroke-width:0.1;stroke-miterlimit:10;}
	.st1{fill:#FE2566;}
</style>
<title>progressie</title>
<path class="st0" d="M3.2,0.5h38.4c1.3,0,2.6,1.1,2.9,2.4c0,0.5,0,0.8,0,1.3c-0.3,1.3-1.6,2.1-2.6,2.1H3.2C1.6,6.3,0.3,5,0.3,3.7
	c0-0.3-0.1-0.5,0-0.8c0.1-0.2,0-0.3,0.2-0.5C1.1,1.3,1.8,0.5,3.2,0.5z"/>
<path class="st1" d="M1.1,1.5c0.4-0.5,1-0.8,1.6-0.8l5.8,0c0.3,0,0.5,1,0.5,2.3c0,0.5,0,0.8,0,1.3C8.9,5.5,8.8,6.3,8.6,6.3H2.9
	C1.5,6.1,1.7,5.8,1.3,5.6C-0.1,4.8,0,2.3,1.1,1.7c0-0.3-0.4,1.2,0,1.5C0.5,2.9,0.7,2.1,1.1,1.5z"/>
</svg>
