<?xml version="1.0" encoding="utf-8"?>
<!-- Generator: Adobe Illustrator 22.1.0, SVG Export Plug-In . SVG Version: 6.00 Build 0)  -->
<svg version="1.1" id="layer" xmlns="http://www.w3.org/2000/svg" xmlns:xlink="http://www.w3.org/1999/xlink" x="0px" y="0px"
	 viewBox="0 0 507.3 512" style="enable-background:new 0 0 507.3 512;" xml:space="preserve">
<style type="text/css">
	.st0{fill:#00D66C;}
	.st1{fill:#FFFFFF;}
</style>
<path class="st0" d="M507.3,254.1C507.3,112.4,395.3,0,253.6,0S0,112.4,0,254.1s111.9,254.1,253.6,254.1
	C395.3,508.2,507.3,395.3,507.3,254.1L507.3,254.1L507.3,254.1z"/>
<path class="st1" d="M365.6,290.5h-14.2c-14.2,0-20.3,7.6-22.2,22.2c-3.8,26.9-25,45.3-52.9,45.3c-32.6,0-53.4-24.1-53.4-58.6v-81.2
	c0-3.3-0.5-6.1-1.4-8.5c2.8,1.4,6.6,1.9,10.9,1.9H307c14.2,0,22.2-8,22.2-22.2v-6.6c0-14.2-8-22.2-22.2-22.2h-42v-45.8
	c0-14.2-8-22.2-22.2-22.2h-10.4c-14.2,0-22.2,8-22.2,22.2v75.1c0,3.3,0.5,6.1,1.4,8.5c-3.3-1.4-7.1-2.4-10.9-1.9h-75.6
	c-14.2,0-22.2,8-22.2,22.2v6.6c0,14.2,8,22.2,22.2,22.2h42.5v52c0,65.7,42,111.5,108.6,111.5c61.9,0,102.5-39.2,110-98.2
	C388.2,298,378.3,290.5,365.6,290.5L365.6,290.5z"/>
</svg>
