<?xml version="1.0" encoding="utf-8"?>
<!-- Generator: Adobe Illustrator 22.1.0, SVG Export Plug-In . SVG Version: 6.00 Build 0)  -->
<svg version="1.1" id="layer" xmlns="http://www.w3.org/2000/svg" xmlns:xlink="http://www.w3.org/1999/xlink" x="0px" y="0px"
	 viewBox="0 0 507.3 512" style="enable-background:new 0 0 507.3 512;" xml:space="preserve">
<style type="text/css">
	.st0{fill:#FFFFFF;}
	.st1{fill:#30009D;}
</style>
<path class="st0" d="M292.3,323.1l66.6,70.7c5,5.3,13.3,5.8,19,1.2l13.3-10.9c6.4-5.2,6.8-14.7,0.9-20.6l-70.4-70.7"/>
<path class="st1" d="M449.1,256c0-109.2-86.3-195.8-195.5-195.8S58.1,146.8,58.1,256s86.2,195.8,195.5,195.8S449.1,364.8,449.1,256
	L449.1,256L449.1,256z"/>
<path class="st0" d="M321.2,236.6c0,30-14.9,56.4-37.5,72.5c-14.4,10.2-32.1,16.3-51.1,16.3c-49,0-88.8-39.7-88.8-88.8
	s39.7-88.8,88.8-88.8S321.2,187.6,321.2,236.6z"/>
<path class="st0" d="M283.4,309.2l51.3,54.5c3.9,4.1,10.2,4.5,14.6,0.9l10.2-8.4c4.9-4,5.2-11.3,0.7-15.8L306,285.9"/>
<circle class="st1" cx="232.5" cy="236.6" r="60.4"/>
</svg>
